<svg width="236" height="211" viewBox="0 0 236 211" fill="none" xmlns="http://www.w3.org/2000/svg">
<path d="M30.1288 177.581C30.1288 177.835 30.2461 178.041 30.4807 178.197C30.725 178.344 31.0036 178.417 31.3163 178.417C31.6291 178.417 31.8881 178.339 32.0934 178.182C32.3084 178.016 32.455 177.933 32.5332 177.933C32.6114 177.933 32.6505 178.041 32.6505 178.256C32.6505 178.461 32.5528 178.637 32.3573 178.783C30.8912 179.859 29.8991 180.396 29.3811 180.396C28.7555 180.396 28.2473 179.746 27.8563 178.446C27.827 178.348 27.8025 178.304 27.783 178.314C26.571 179.223 25.8086 179.771 25.4958 179.956C24.6944 180.416 23.888 180.489 23.0767 180.176C22.2753 179.863 21.6937 179.345 21.3321 178.622C21.1561 178.251 21.0682 177.855 21.0682 177.435C21.0682 176.604 21.376 175.944 21.9918 175.455C22.6076 174.967 23.7805 174.497 25.5105 174.048C26.097 173.891 26.6199 173.691 27.0793 173.447C27.5386 173.202 27.7781 173.046 27.7977 172.978C27.827 172.909 27.8416 172.846 27.8416 172.787V169.972C27.8416 168.867 27.4116 168.09 26.5515 167.641C26.268 167.494 25.9259 167.421 25.5252 167.421C25.1342 167.421 24.7335 167.577 24.323 167.89C23.9222 168.203 23.7218 168.648 23.7218 169.224L23.7951 169.796C23.7365 169.913 23.3846 170.109 22.7395 170.382C22.0944 170.656 21.723 170.803 21.6253 170.822C21.4689 170.822 21.3907 170.637 21.3907 170.265C21.3907 169.884 21.5031 169.464 21.7279 169.004C21.9527 168.545 22.2704 168.125 22.6809 167.743C23.6388 166.854 24.7335 166.409 25.965 166.409C27.1965 166.409 28.1984 166.751 28.9706 167.436C29.7427 168.11 30.1288 168.916 30.1288 169.855V177.581ZM23.37 177.156C23.37 177.625 23.5508 178.036 23.9124 178.388C24.2741 178.73 24.6846 178.901 25.144 178.901C25.6131 178.901 26.18 178.705 26.8447 178.314C27.5093 177.913 27.8416 177.503 27.8416 177.083V174.106C27.8416 173.999 27.8172 173.945 27.7683 173.945C27.7195 173.945 27.6853 173.95 27.6657 173.96L24.2643 175.543C23.9124 175.797 23.673 176.012 23.5459 176.188C23.4286 176.364 23.37 176.687 23.37 177.156ZM42.0777 179.766C42.0777 179.922 41.9897 180 41.8138 180H33.7648C33.667 179.981 33.6182 179.912 33.6182 179.795C33.6182 179.619 33.8479 179.502 34.3072 179.443C35.3628 179.287 35.8906 178.73 35.8906 177.772V168.887C35.8906 168.78 35.832 168.726 35.7147 168.726H34.1166C33.9994 168.726 33.8869 168.692 33.7794 168.623C33.6719 168.545 33.6182 168.447 33.6182 168.33C33.6182 168.203 33.6768 168.105 33.7941 168.037C33.9603 167.939 34.3512 167.807 34.967 167.641C35.5828 167.475 35.8906 167.201 35.8906 166.82V166.336C35.8906 162.817 36.653 160.11 38.1778 158.214C39.0281 157.148 40.3232 156.327 42.063 155.751C42.5908 155.575 43.1137 155.487 43.6318 155.487C44.1498 155.487 44.7558 155.624 45.4498 155.897C46.1437 156.161 46.4907 156.484 46.4907 156.865C46.4907 156.943 46.476 157.011 46.4467 157.07C46.4272 157.129 46.4027 157.202 46.3734 157.29L45.7723 158.58C45.6941 158.737 45.6013 158.815 45.4937 158.815C45.4644 158.815 45.2543 158.663 44.8633 158.36C44.4723 158.048 44.0569 157.764 43.6171 157.51C43.187 157.246 42.6788 157.114 42.0923 157.114C40.9488 157.114 40.0838 157.407 39.4973 157.994C38.9109 158.58 38.5443 159.245 38.3977 159.988C38.2511 160.721 38.1778 161.532 38.1778 162.421V166.688C38.1778 166.766 38.2267 166.805 38.3244 166.805H41.1833C41.457 166.805 41.633 166.834 41.7111 166.893C41.7991 166.942 41.8822 167.118 41.9604 167.421C42.0386 167.714 42.0777 167.988 42.0777 168.242C42.0777 168.486 42.0532 168.628 42.0044 168.667C41.9555 168.706 41.8529 168.726 41.6965 168.726H38.3684C38.2413 168.726 38.1778 168.775 38.1778 168.872V177.479C38.1778 178.876 39.3898 179.575 41.8138 179.575C41.9897 179.595 42.0777 179.658 42.0777 179.766ZM52.1206 169.488C52.0033 169.469 51.8323 169.405 51.6075 169.298C50.7962 168.926 50.1609 168.74 49.7015 168.74C49.2421 168.74 48.7583 169.029 48.25 169.605C47.7516 170.172 47.5023 170.685 47.5023 171.145V177.772C47.5023 178.505 47.9275 178.994 48.7779 179.238C49.1493 179.336 49.4962 179.409 49.8188 179.458C50.1413 179.497 50.3466 179.536 50.4346 179.575C50.5323 179.614 50.5812 179.692 50.5812 179.81C50.5812 179.917 50.5323 179.981 50.4346 180H43.0893C42.9916 179.981 42.9427 179.912 42.9427 179.795C42.9427 179.619 43.1724 179.502 43.6318 179.443C44.6874 179.287 45.2152 178.73 45.2152 177.772V170.016C45.2152 169.605 44.9904 169.322 44.5408 169.166C44.3453 169.097 44.1351 169.043 43.9103 169.004C43.6855 168.955 43.5047 168.911 43.3679 168.872C43.2408 168.833 43.1577 168.799 43.1186 168.77C43.0893 168.731 43.0746 168.657 43.0746 168.55C43.0746 168.433 43.1479 168.335 43.2946 168.257L47.0332 166.497C47.1505 166.439 47.2238 166.409 47.2531 166.409C47.4192 166.409 47.5023 166.527 47.5023 166.761V169.136C47.5023 169.254 47.5316 169.312 47.5903 169.312C47.6685 169.312 47.8689 169.083 48.1914 168.623C49.1199 167.323 49.8872 166.673 50.4932 166.673C50.8353 166.673 51.3582 166.81 52.062 167.084C52.7755 167.357 53.1322 167.587 53.1322 167.773C53.1322 167.998 53.0198 168.34 52.795 168.799C52.5702 169.258 52.3454 169.488 52.1206 169.488ZM54.2465 173.417C54.2465 171.492 54.9258 169.84 56.2844 168.462C57.6528 167.074 59.2899 166.38 61.1959 166.38C63.1019 166.38 64.7586 167.054 66.166 168.403C67.5735 169.742 68.2773 171.399 68.2773 173.373C68.2773 175.348 67.6077 177.014 66.2687 178.373C64.9394 179.722 63.268 180.396 61.2545 180.396C59.2411 180.396 57.5697 179.712 56.2404 178.344C54.9111 176.975 54.2465 175.333 54.2465 173.417ZM57.8971 177.185C58.855 178.798 60.1598 179.604 61.8117 179.604C63.0921 179.604 64.0695 179.091 64.7439 178.065C65.4281 177.039 65.7702 175.778 65.7702 174.282C65.7702 172.787 65.2913 171.252 64.3334 169.679C63.3853 168.105 62.1049 167.318 60.4922 167.318C59.3095 167.318 58.3761 167.831 57.6919 168.858C57.0175 169.874 56.6802 171.169 56.6802 172.743C56.6802 174.307 57.0859 175.788 57.8971 177.185ZM79.4638 167.025C79.8938 167.172 80.1577 167.245 80.2555 167.245C80.3532 167.245 80.4119 167.245 80.4314 167.245C80.4607 167.235 80.4949 167.172 80.534 167.054V159.489C80.534 159.079 80.3092 158.795 79.8596 158.639C79.6641 158.57 79.454 158.517 79.2292 158.478C79.0044 158.429 78.8236 158.385 78.6867 158.346C78.5597 158.307 78.4766 158.272 78.4375 158.243C78.4082 158.204 78.3935 158.131 78.3935 158.023C78.3935 157.906 78.4668 157.808 78.6134 157.73L82.352 155.971C82.4693 155.912 82.5426 155.883 82.5719 155.883C82.7381 155.883 82.8212 156 82.8212 156.234V177.112C82.87 177.542 82.9922 177.85 83.1877 178.036C83.3832 178.221 83.7009 178.314 84.1407 178.314L84.991 178.256C85.0497 178.256 85.079 178.314 85.079 178.431C85.079 178.539 85.0057 178.627 84.8591 178.695L80.9592 180.308C80.8419 180.367 80.7393 180.396 80.6513 180.396C80.5731 180.396 80.534 180.274 80.534 180.03V178.695C80.534 178.598 80.5096 178.549 80.4607 178.549C80.3923 178.549 79.9867 178.769 79.2438 179.209C76.9665 180.557 75.0459 180.758 73.482 179.81C72.2309 179.047 71.3854 177.84 70.9456 176.188C70.7403 175.416 70.6377 174.6 70.6377 173.74C70.6377 172.87 70.8136 172.01 71.1655 171.16C71.5272 170.299 72.0208 169.547 72.6463 168.902C74.0245 167.494 75.6861 166.79 77.6311 166.79C78.4228 166.79 79.0337 166.869 79.4638 167.025ZM72.8516 173.315C72.8516 174.791 73.2621 176.086 74.0831 177.2C74.9041 178.304 76.0477 178.857 77.5138 178.857C78.1589 178.857 78.8236 178.7 79.5077 178.388C80.1919 178.065 80.534 177.821 80.534 177.654V170.089C80.534 169.904 80.407 169.684 80.1528 169.43C79.3709 168.354 78.33 167.817 77.03 167.817C75.7398 167.817 74.7184 168.364 73.9658 169.459C73.223 170.544 72.8516 171.829 72.8516 173.315ZM86.3985 180C86.3008 179.981 86.2519 179.912 86.2519 179.795C86.2519 179.619 86.4816 179.502 86.941 179.443C87.9966 179.287 88.5244 178.73 88.5244 177.772V170.016C88.5244 169.605 88.2996 169.322 87.85 169.166C87.6545 169.097 87.4443 169.043 87.2195 169.004C86.9947 168.955 86.8139 168.911 86.6771 168.872C86.55 168.833 86.4669 168.799 86.4278 168.77C86.3985 168.731 86.3839 168.657 86.3839 168.55C86.3839 168.433 86.4572 168.335 86.6038 168.257L90.3424 166.497C90.4597 166.439 90.533 166.409 90.5623 166.409C90.7285 166.409 90.8115 166.527 90.8115 166.761V177.772C90.8115 178.73 91.3393 179.287 92.395 179.443C92.8543 179.502 93.084 179.604 93.084 179.751C93.084 179.898 93.0352 179.981 92.9374 180H86.3985ZM89.448 162.29C89.0473 162.29 88.6906 162.162 88.3778 161.908C88.0748 161.654 87.9233 161.302 87.9233 160.853C87.9233 160.393 88.0699 160.032 88.3631 159.768C88.6563 159.504 89.0033 159.372 89.4041 159.372C89.8146 159.372 90.1567 159.528 90.4303 159.841C90.7138 160.154 90.8555 160.491 90.8555 160.853C90.8555 161.214 90.7236 161.547 90.4597 161.85C90.1958 162.143 89.8586 162.29 89.448 162.29ZM98.4061 168.726C98.3474 168.726 98.3181 168.77 98.3181 168.858V176.951C98.3181 177.537 98.4451 177.997 98.6993 178.329C98.9632 178.661 99.2955 178.827 99.6962 178.827C100.097 178.827 100.444 178.764 100.737 178.637C101.04 178.5 101.299 178.353 101.514 178.197C101.739 178.041 101.939 177.899 102.115 177.772C102.291 177.635 102.448 177.566 102.584 177.566C102.721 177.566 102.79 177.601 102.79 177.669C102.79 177.904 102.765 178.055 102.716 178.124C101.544 179.639 100.41 180.396 99.315 180.396C98.2301 180.396 97.4091 180.054 96.852 179.37C96.3046 178.676 96.0309 177.85 96.0309 176.892V168.726H94.9313C94.6577 168.726 94.5111 168.638 94.4915 168.462C94.4817 168.286 94.5111 168.174 94.5795 168.125C95.0975 167.792 95.811 167.196 96.72 166.336C96.8178 166.228 96.9497 166.067 97.1159 165.852C97.282 165.637 97.5215 165.344 97.8343 164.973C98.1568 164.601 98.4012 164.415 98.5673 164.415C98.7335 164.415 98.8166 164.484 98.8166 164.621C98.8166 164.64 98.6504 165.28 98.3181 166.541C98.3181 166.717 98.3963 166.81 98.5527 166.82H102.291C102.721 166.82 102.936 167.426 102.936 168.638C102.936 168.696 102.897 168.726 102.819 168.726H98.4061ZM106.704 172.274C106.538 172.274 106.455 172.631 106.455 173.344C106.455 174.859 106.905 176.13 107.804 177.156C108.703 178.182 109.817 178.695 111.147 178.695C112.486 178.695 113.771 178.119 115.003 176.965C115.022 176.946 115.047 176.936 115.076 176.936H115.149C115.208 176.936 115.262 176.985 115.31 177.083C115.369 177.171 115.423 177.229 115.472 177.259C114.338 178.637 113.004 179.59 111.469 180.118C110.941 180.303 110.345 180.396 109.681 180.396C109.016 180.396 108.341 180.215 107.657 179.854C106.973 179.482 106.387 178.998 105.898 178.402C104.862 177.161 104.344 175.617 104.344 173.769C104.344 171.912 104.906 170.221 106.03 168.696C107.164 167.172 108.718 166.409 110.692 166.409C112.109 166.409 113.268 167.045 114.167 168.315C115.066 169.576 115.516 170.685 115.516 171.643C115.516 172.064 115.413 172.274 115.208 172.274H106.704ZM106.866 170.866C106.866 171.052 106.954 171.145 107.129 171.145H112.657C112.911 171.145 113.038 170.993 113.038 170.69C113.038 169.987 112.72 169.268 112.085 168.535C111.459 167.792 110.77 167.421 110.018 167.421C109.285 167.421 108.615 167.753 108.009 168.418C107.413 169.083 107.032 169.84 106.866 170.69V170.866Z" fill="#9C6A4B"/>
<path d="M88.3191 188.343C88.3191 189.027 87.9232 189.369 87.1315 189.369C86.7308 189.369 86.3887 189.256 86.1052 189.032C85.8316 188.797 85.6165 188.602 85.4602 188.445C85.3135 188.279 85.1572 188.128 84.991 187.991C84.2873 187.414 83.4271 187.351 82.4106 187.8C81.4039 188.25 80.6268 189.208 80.0795 190.674C79.7765 191.485 79.625 192.291 79.625 193.093C79.625 194.813 80.016 196.221 80.7979 197.315C81.5798 198.4 82.7771 198.943 84.3899 198.943C85.5921 198.943 86.6721 198.405 87.63 197.33C87.9232 197.007 88.0992 196.846 88.1578 196.846C88.2165 196.846 88.28 196.875 88.3484 196.934C88.4168 196.993 88.451 197.081 88.451 197.198C88.451 197.305 88.4217 197.389 88.3631 197.447C86.8676 199.529 84.9861 200.57 82.7185 200.57C81.0764 200.57 79.7276 199.959 78.672 198.737C77.6262 197.516 77.1033 196.118 77.1033 194.544C77.113 191.632 77.8168 189.535 79.2145 188.255C80.446 187.131 82.2005 186.569 84.4779 186.569C85.8853 186.569 86.8188 186.71 87.2781 186.994C87.7375 187.277 88.0601 187.634 88.2458 188.064C88.2947 188.162 88.3191 188.255 88.3191 188.343ZM90.5769 193.591C90.5769 191.666 91.2562 190.014 92.6148 188.636C93.9832 187.248 95.6204 186.554 97.5263 186.554C99.4323 186.554 101.089 187.228 102.496 188.577C103.904 189.916 104.608 191.573 104.608 193.547C104.608 195.522 103.938 197.188 102.599 198.547C101.27 199.896 99.5984 200.57 97.585 200.57C95.5715 200.57 93.9001 199.886 92.5708 198.517C91.2416 197.149 90.5769 195.507 90.5769 193.591ZM94.2276 197.359C95.1854 198.972 96.4903 199.778 98.1421 199.778C99.4225 199.778 100.4 199.265 101.074 198.239C101.759 197.213 102.101 195.952 102.101 194.456C102.101 192.961 101.622 191.426 100.664 189.853C99.7157 188.279 98.4353 187.492 96.8226 187.492C95.6399 187.492 94.7065 188.005 94.0223 189.032C93.3479 190.048 93.0107 191.343 93.0107 192.917C93.0107 194.481 93.4163 195.962 94.2276 197.359ZM113.859 190.146C113.859 190.361 113.776 190.468 113.61 190.468C113.453 190.468 113.331 190.351 113.243 190.117C113.009 189.472 112.657 188.9 112.188 188.401C111.728 187.903 111.156 187.654 110.472 187.654C109.573 187.654 108.967 188.103 108.654 189.002C108.556 189.305 108.508 189.618 108.508 189.941C108.508 190.263 108.713 190.625 109.123 191.026C109.534 191.417 110.208 191.886 111.147 192.433C112.085 192.98 112.769 193.445 113.199 193.826C114.177 194.696 114.665 195.703 114.665 196.846C114.665 197.99 114.245 198.899 113.404 199.573C112.564 200.238 111.586 200.57 110.472 200.57C109.876 200.57 109.333 200.487 108.845 200.321C108.366 200.164 108.087 200.086 108.009 200.086C107.941 200.086 107.823 200.164 107.657 200.321C107.501 200.487 107.374 200.57 107.276 200.57H107.027C106.968 200.57 106.895 200.042 106.807 198.987C106.719 197.931 106.675 197.305 106.675 197.11C106.675 196.915 106.69 196.807 106.719 196.787C106.758 196.768 106.817 196.758 106.895 196.758C106.973 196.758 107.037 196.783 107.085 196.831C107.144 196.88 107.193 196.944 107.232 197.022C107.271 197.09 107.3 197.164 107.32 197.242C107.349 197.32 107.413 197.467 107.511 197.682C108.175 199.099 109.202 199.808 110.589 199.808C111.205 199.808 111.699 199.583 112.07 199.133C112.442 198.674 112.627 198.166 112.627 197.608C112.627 197.051 112.481 196.582 112.188 196.201C111.894 195.82 111.528 195.473 111.088 195.16C110.658 194.847 110.189 194.544 109.68 194.251C107.706 193.098 106.719 191.822 106.719 190.424C106.719 189.379 107.169 188.479 108.068 187.727C108.967 186.964 109.891 186.583 110.839 186.583C111.787 186.583 112.486 186.686 112.935 186.891C113.395 187.096 113.663 187.272 113.742 187.419C113.82 187.556 113.859 188.015 113.859 188.797V190.146ZM136.129 195.556L136.1 192.462C136.1 191.202 135.992 190.317 135.777 189.809C135.562 189.3 135.289 188.919 134.956 188.665C134.624 188.401 134.174 188.269 133.608 188.269C133.05 188.269 131.863 188.709 130.045 189.589C129.801 189.735 129.673 189.872 129.664 189.999V197.887C129.664 198.874 130.192 199.441 131.247 199.588C131.706 199.656 131.936 199.769 131.936 199.925C131.936 200.072 131.887 200.155 131.79 200.174H125.251C125.153 200.155 125.104 200.086 125.104 199.969C125.104 199.783 125.334 199.656 125.793 199.588C126.849 199.441 127.377 198.874 127.377 197.887V190.586C127.377 189.051 126.428 188.284 124.532 188.284C123.838 188.284 122.876 188.694 121.644 189.515C121.331 189.721 121.102 189.911 120.955 190.087V197.887C120.955 198.874 121.483 199.441 122.538 199.588C122.998 199.656 123.227 199.769 123.227 199.925C123.227 200.072 123.179 200.155 123.081 200.174H116.542C116.444 200.155 116.395 200.086 116.395 199.969C116.395 199.783 116.625 199.656 117.084 199.588C118.14 199.441 118.668 198.884 118.668 197.916V189.472C118.668 189.061 118.443 188.778 117.993 188.621C117.798 188.553 117.588 188.499 117.363 188.46C117.138 188.411 116.957 188.367 116.82 188.328C116.693 188.289 116.61 188.255 116.571 188.225C116.542 188.186 116.527 188.113 116.527 188.005C116.527 187.888 116.601 187.79 116.747 187.712L120.486 185.953C120.603 185.894 120.676 185.865 120.706 185.865C120.872 185.865 120.955 185.982 120.955 186.217V188.65C120.965 188.709 120.999 188.738 121.058 188.738C121.126 188.738 121.287 188.67 121.541 188.533C121.805 188.396 122.147 188.206 122.568 187.961C122.988 187.707 123.54 187.414 124.224 187.082C124.918 186.749 125.651 186.583 126.424 186.583C127.665 186.583 128.554 187.116 129.092 188.181C129.297 188.611 129.483 188.797 129.649 188.738C129.815 188.67 130.074 188.548 130.426 188.372C131.257 187.961 132.097 187.561 132.948 187.17C133.798 186.779 134.502 186.583 135.059 186.583C137.317 186.583 138.446 188.641 138.446 192.756L138.314 197.037V197.887C138.314 198.649 138.695 199.148 139.457 199.382C139.78 199.49 140.088 199.568 140.381 199.617C140.684 199.656 140.88 199.695 140.967 199.734C141.065 199.773 141.114 199.852 141.114 199.969C141.114 200.086 141.065 200.155 140.967 200.174H133.901C133.803 200.155 133.754 200.086 133.754 199.969C133.754 199.783 133.984 199.656 134.443 199.588C135.489 199.441 136.012 198.835 136.012 197.77C136.09 197.281 136.129 196.543 136.129 195.556ZM144.559 192.448C144.393 192.448 144.31 192.804 144.31 193.518C144.31 195.033 144.76 196.304 145.659 197.33C146.558 198.356 147.673 198.869 149.002 198.869C150.341 198.869 151.626 198.293 152.858 197.139C152.877 197.12 152.902 197.11 152.931 197.11H153.004C153.063 197.11 153.117 197.159 153.166 197.257C153.224 197.345 153.278 197.403 153.327 197.433C152.193 198.811 150.859 199.764 149.324 200.291C148.797 200.477 148.2 200.57 147.536 200.57C146.871 200.57 146.197 200.389 145.512 200.028C144.828 199.656 144.242 199.172 143.753 198.576C142.717 197.335 142.199 195.79 142.199 193.943C142.199 192.086 142.761 190.395 143.885 188.87C145.019 187.346 146.573 186.583 148.547 186.583C149.965 186.583 151.123 187.219 152.022 188.489C152.921 189.75 153.371 190.859 153.371 191.817C153.371 192.238 153.268 192.448 153.063 192.448H144.559ZM144.721 191.04C144.721 191.226 144.809 191.319 144.985 191.319H150.512C150.766 191.319 150.893 191.167 150.893 190.864C150.893 190.161 150.575 189.442 149.94 188.709C149.315 187.966 148.626 187.595 147.873 187.595C147.14 187.595 146.47 187.927 145.864 188.592C145.268 189.256 144.887 190.014 144.721 190.864V191.04ZM159.397 188.9C159.338 188.9 159.309 188.944 159.309 189.032V197.125C159.309 197.711 159.436 198.17 159.69 198.503C159.954 198.835 160.286 199.001 160.687 199.001C161.088 199.001 161.435 198.938 161.728 198.811C162.031 198.674 162.29 198.527 162.505 198.371C162.73 198.214 162.93 198.073 163.106 197.946C163.282 197.809 163.438 197.74 163.575 197.74C163.712 197.74 163.78 197.775 163.78 197.843C163.78 198.078 163.756 198.229 163.707 198.298C162.534 199.813 161.4 200.57 160.306 200.57C159.221 200.57 158.4 200.228 157.843 199.544C157.295 198.85 157.022 198.024 157.022 197.066V188.9H155.922C155.648 188.9 155.502 188.812 155.482 188.636C155.472 188.46 155.502 188.347 155.57 188.299C156.088 187.966 156.802 187.37 157.711 186.51C157.808 186.402 157.94 186.241 158.106 186.026C158.273 185.811 158.512 185.518 158.825 185.146C159.147 184.775 159.392 184.589 159.558 184.589C159.724 184.589 159.807 184.658 159.807 184.795C159.807 184.814 159.641 185.454 159.309 186.715C159.309 186.891 159.387 186.984 159.543 186.994H163.282C163.712 186.994 163.927 187.6 163.927 188.812C163.927 188.87 163.888 188.9 163.81 188.9H159.397ZM165.334 200.174C165.237 200.155 165.188 200.086 165.188 199.969C165.188 199.793 165.418 199.676 165.877 199.617C166.933 199.461 167.46 198.904 167.46 197.946V190.19C167.46 189.779 167.235 189.496 166.786 189.34C166.59 189.271 166.38 189.217 166.155 189.178C165.931 189.129 165.75 189.085 165.613 189.046C165.486 189.007 165.403 188.973 165.364 188.944C165.334 188.905 165.32 188.831 165.32 188.724C165.32 188.606 165.393 188.509 165.54 188.431L169.278 186.671C169.396 186.613 169.469 186.583 169.498 186.583C169.664 186.583 169.747 186.701 169.747 186.935V197.946C169.747 198.904 170.275 199.461 171.331 199.617C171.79 199.676 172.02 199.778 172.02 199.925C172.02 200.072 171.971 200.155 171.873 200.174H165.334ZM168.384 182.463C167.983 182.463 167.626 182.336 167.314 182.082C167.011 181.828 166.859 181.476 166.859 181.027C166.859 180.567 167.006 180.206 167.299 179.942C167.592 179.678 167.939 179.546 168.34 179.546C168.75 179.546 169.093 179.702 169.366 180.015C169.65 180.328 169.791 180.665 169.791 181.027C169.791 181.388 169.659 181.721 169.396 182.024C169.132 182.317 168.794 182.463 168.384 182.463ZM185.288 188.343C185.288 189.027 184.892 189.369 184.101 189.369C183.7 189.369 183.358 189.256 183.074 189.032C182.801 188.797 182.586 188.602 182.429 188.445C182.283 188.279 182.126 188.128 181.96 187.991C181.257 187.414 180.396 187.351 179.38 187.8C178.373 188.25 177.596 189.208 177.049 190.674C176.746 191.485 176.594 192.291 176.594 193.093C176.594 194.813 176.985 196.221 177.767 197.315C178.549 198.4 179.746 198.943 181.359 198.943C182.561 198.943 183.641 198.405 184.599 197.33C184.892 197.007 185.068 196.846 185.127 196.846C185.186 196.846 185.249 196.875 185.318 196.934C185.386 196.993 185.42 197.081 185.42 197.198C185.42 197.305 185.391 197.389 185.332 197.447C183.837 199.529 181.955 200.57 179.688 200.57C178.046 200.57 176.697 199.959 175.641 198.737C174.595 197.516 174.073 196.118 174.073 194.544C174.082 191.632 174.786 189.535 176.184 188.255C177.415 187.131 179.17 186.569 181.447 186.569C182.855 186.569 183.788 186.71 184.247 186.994C184.707 187.277 185.029 187.634 185.215 188.064C185.264 188.162 185.288 188.255 185.288 188.343ZM187.546 193.591C187.546 191.666 188.225 190.014 189.584 188.636C190.952 187.248 192.59 186.554 194.496 186.554C196.402 186.554 198.058 187.228 199.466 188.577C200.873 189.916 201.577 191.573 201.577 193.547C201.577 195.522 200.907 197.188 199.568 198.547C198.239 199.896 196.568 200.57 194.554 200.57C192.541 200.57 190.869 199.886 189.54 198.517C188.211 197.149 187.546 195.507 187.546 193.591ZM191.197 197.359C192.155 198.972 193.46 199.778 195.111 199.778C196.392 199.778 197.369 199.265 198.044 198.239C198.728 197.213 199.07 195.952 199.07 194.456C199.07 192.961 198.591 191.426 197.633 189.853C196.685 188.279 195.405 187.492 193.792 187.492C192.609 187.492 191.676 188.005 190.992 189.032C190.317 190.048 189.98 191.343 189.98 192.917C189.98 194.481 190.386 195.962 191.197 197.359ZM210.828 190.146C210.828 190.361 210.745 190.468 210.579 190.468C210.423 190.468 210.3 190.351 210.212 190.117C209.978 189.472 209.626 188.9 209.157 188.401C208.697 187.903 208.126 187.654 207.441 187.654C206.542 187.654 205.936 188.103 205.623 189.002C205.526 189.305 205.477 189.618 205.477 189.941C205.477 190.263 205.682 190.625 206.093 191.026C206.503 191.417 207.178 191.886 208.116 192.433C209.054 192.98 209.738 193.445 210.168 193.826C211.146 194.696 211.635 195.703 211.635 196.846C211.635 197.99 211.214 198.899 210.374 199.573C209.533 200.238 208.556 200.57 207.441 200.57C206.845 200.57 206.303 200.487 205.814 200.321C205.335 200.164 205.057 200.086 204.978 200.086C204.91 200.086 204.793 200.164 204.626 200.321C204.47 200.487 204.343 200.57 204.245 200.57H203.996C203.937 200.57 203.864 200.042 203.776 198.987C203.688 197.931 203.644 197.305 203.644 197.11C203.644 196.915 203.659 196.807 203.688 196.787C203.727 196.768 203.786 196.758 203.864 196.758C203.942 196.758 204.006 196.783 204.055 196.831C204.113 196.88 204.162 196.944 204.201 197.022C204.24 197.09 204.27 197.164 204.289 197.242C204.319 197.32 204.382 197.467 204.48 197.682C205.145 199.099 206.171 199.808 207.559 199.808C208.174 199.808 208.668 199.583 209.039 199.133C209.411 198.674 209.597 198.166 209.597 197.608C209.597 197.051 209.45 196.582 209.157 196.201C208.864 195.82 208.497 195.473 208.057 195.16C207.627 194.847 207.158 194.544 206.65 194.251C204.675 193.098 203.688 191.822 203.688 190.424C203.688 189.379 204.138 188.479 205.037 187.727C205.936 186.964 206.86 186.583 207.808 186.583C208.756 186.583 209.455 186.686 209.905 186.891C210.364 187.096 210.633 187.272 210.711 187.419C210.789 187.556 210.828 188.015 210.828 188.797V190.146Z" fill="#9C6A4B"/>
<path d="M128.586 0.930054C128.727 1.4928 127.508 5.71335 125.585 11.3408C123.756 16.5461 121.693 22.5956 120.942 24.7997C118.082 33.1939 114.799 42.7136 111.798 51.2954C110.109 56.1725 108.281 61.4716 107.765 63.0192C105.748 68.9749 103.263 71.601 98.8547 72.492C97.0726 72.8203 96.7913 73.0547 96.6506 74.1802L96.5099 75.4464H102.841C106.358 75.4464 109.218 75.5871 109.218 75.7278C109.218 75.8684 108.187 78.6353 106.874 81.8241C104.388 88.0612 102.419 94.7672 101.903 98.7533C101.668 100.723 101.434 101.239 100.73 101.239C99.7457 101.239 98.4326 100.019 98.4326 99.1284C98.4326 98.8002 96.8382 95.3299 94.8686 91.3907C92.8521 87.2171 90.1791 80.7455 88.5377 75.9622C83.6606 61.6592 79.5339 54.4374 73.9534 50.3106C71.2334 48.341 68.0446 46.9811 65.3715 46.7466C64.6212 46.6528 63.9647 46.7935 63.9647 47.0748C63.9647 47.3093 65.0902 49.7479 66.4032 52.4678C69.2169 58.189 70.2017 61.4716 73.5782 75.9153C74.9381 81.7303 76.6733 88.577 77.4236 91.1563C79.2994 97.534 83.4262 107.851 86.7557 114.463C88.3033 117.511 89.5225 120.091 89.5225 120.231C89.5225 120.747 82.5821 115.776 79.909 113.338C78.4084 111.978 74.4692 107.663 71.2334 103.818C60.2131 90.828 54.867 86.795 46.379 85.013C41.9709 84.122 37 84.5909 37 85.9509C37 87.264 55.2422 111.978 64.0585 122.576C70.5769 130.501 84.6454 144.617 90.9294 149.541C99.9801 156.716 112.689 164.406 129.243 172.66C136.371 176.224 146.031 181.851 151.377 185.509C154.425 187.573 156.16 188.464 156.958 188.37C157.943 188.229 157.474 187.76 153.722 185.134C147.719 180.914 143.077 178.194 131.494 172.144C100.684 156.012 94.3527 151.651 78.2677 135.519C69.0294 126.234 63.4488 119.762 54.0229 107.335C47.0356 98.0967 39.3448 87.3109 39.3448 86.7012C39.3448 85.8571 45.7225 86.1854 48.8645 87.2171C55.8987 89.5618 60.8696 93.7355 70.7176 105.6C76.2981 112.259 80.5187 116.386 84.8799 119.387C91.1639 123.701 100.402 127.406 107.343 128.438C109.265 128.719 111.329 129.048 111.845 129.188C113.205 129.423 119.957 137.067 124.928 143.913C127.132 147.008 129.993 150.572 131.259 151.885C133.557 154.277 137.543 157.044 138.622 157.044C139.607 157.044 139.325 155.825 138.2 155.309C135.339 153.996 131.4 149.963 126.241 143.116C123.193 139.036 118.832 133.737 116.487 131.345C111.751 126.328 100.215 116.011 91.4452 108.836C88.2095 106.163 85.4896 103.818 85.3958 103.583C85.1144 102.833 89.2412 102.083 93.6024 102.083C98.7609 102.13 103.45 103.255 108.984 105.881C116.534 109.398 127.695 117.558 131.494 122.342C137.543 129.939 143.03 132.94 152.128 133.596C160.522 134.206 171.214 137.77 177.967 142.084C188.096 148.65 195.505 159.295 206.057 182.508C208.073 186.869 209.011 188.464 209.621 188.464C210.324 188.464 210.137 187.76 208.308 183.633C207.135 181.007 204.228 174.958 201.789 170.175C190.582 147.946 181.906 139.74 164.226 134.487C162.069 133.878 160.334 133.221 160.334 133.034C160.334 132.893 161.038 132.565 161.882 132.424C165.258 131.674 172.011 127.734 175.341 124.592C178.529 121.591 180.968 118.449 180.968 117.371C180.968 116.011 179.327 114.838 177.404 114.838C176.138 114.838 175.294 115.401 172.668 117.98C170.839 119.809 168.259 121.779 166.665 122.576C164.133 123.842 163.429 123.983 159.396 123.983C155.598 123.936 154.566 123.795 152.315 122.717C147.344 120.419 144.249 116.48 142.233 109.914C141.154 106.35 140.966 92.188 141.998 88.1081C142.983 84.0282 145.562 79.0573 147.672 77.1346L149.548 75.4464H156.16H162.773L165.774 78.2132C169.244 81.449 171.167 82.2462 174.731 81.8241C179.092 81.3083 180.499 80.1359 180.499 76.947C180.499 73.9457 178.998 71.7886 175.763 70.1941C174.356 69.5376 172.339 68.8342 171.261 68.6466C170.229 68.5059 169.01 67.9901 168.635 67.568C168.025 66.8646 166.477 62.6909 161.507 48.7162C158.599 40.5564 155.082 30.7085 153.065 25.0341C151.94 21.9391 149.83 16.0303 148.376 11.9035C146.969 7.77673 145.375 3.46239 144.906 2.29001L144.108 0.179733L136.23 0.0390472C128.399 -0.0547485 128.352 -0.0547485 128.586 0.930054ZM134.401 16.4523C135.292 17.8592 142.373 37.6958 142.186 38.2586C141.998 38.7275 139.935 38.8682 133.088 38.8682C124.881 38.8682 124.225 38.8213 124.225 38.0241C124.225 37.5551 125.304 34.1318 126.617 30.4271C127.883 26.6755 129.383 22.3611 129.899 20.8136C130.415 19.266 131.165 17.5309 131.541 16.9213C132.291 15.7958 133.792 15.5613 134.401 16.4523ZM144.531 45.0583C145.703 45.9963 153.112 66.5363 152.69 67.7087C152.55 68.037 151.612 68.5059 150.627 68.6466C147.25 69.2093 142.748 70.8038 140.029 72.4451C138.528 73.3361 137.215 74.0395 137.121 74.0395C137.027 74.0395 136.418 72.8203 135.714 71.3196C134.073 67.6618 130.087 63.7226 128.07 63.7226C127.836 63.7226 127.508 66.6301 127.32 70.1472C127.039 76.5719 126.804 78.1663 123.615 95.3768C122.677 100.254 121.786 105.834 121.599 107.663C121.458 109.539 121.224 111.087 121.13 111.087C120.989 111.087 119.864 110.383 118.598 109.539L116.253 108.038L116.534 104.99C116.956 100.582 118.785 91.7659 121.083 83.1841L123.146 75.6809L124.647 75.5402C125.96 75.3995 126.148 75.2119 126.007 74.1333C125.913 73.2423 125.585 72.8672 124.928 72.8672C124.084 72.8672 124.037 72.6327 124.225 70.7569C124.647 66.9115 124.459 59.3145 123.897 57.3918C123.568 56.3601 122.537 54.2498 121.646 52.7023C119.723 49.5603 119.77 48.2472 121.739 45.9025L122.912 44.4956H133.323C140.92 44.4956 143.968 44.6363 144.531 45.0583ZM70.0611 49.8417C77.0953 53.1243 81.4566 59.971 87.1309 76.5719C88.7722 81.3083 91.4452 87.7798 93.5086 91.9535C95.4313 95.8458 97.0257 99.4098 97.0257 99.8319C97.0257 100.395 96.2754 100.535 92.6645 100.582C89.8508 100.582 87.506 100.864 85.9116 101.426C84.5516 101.895 83.2386 102.13 83.0041 101.989C82.0662 101.379 77.2829 85.4819 74.985 75.2119C72.2182 62.9723 70.4362 56.9228 68.1384 52.2802C67.2474 50.5451 66.5439 48.9975 66.5439 48.9038C66.5439 48.4348 67.9039 48.81 70.0611 49.8417ZM121.927 56.6883C123.193 60.0179 123.568 64.9888 122.818 69.2562L122.255 72.6796L120.567 72.3513C117.191 71.7417 114.377 69.8659 114.377 68.2245C114.377 67.6618 114.893 65.6453 115.502 63.7226C116.112 61.7999 117.191 58.3297 117.894 55.9849L119.16 51.8112L120.051 52.9367C120.52 53.5933 121.364 55.2815 121.927 56.6883ZM131.587 67.8025C133.276 69.6314 135.48 73.6644 135.48 74.9774C135.48 75.3995 134.729 76.4312 133.745 77.3222C131.494 79.4794 129.055 83.3717 127.414 87.4046C126.663 89.1867 126.195 90.0308 126.335 89.2804C127.836 80.98 128.492 76.1967 128.774 71.5541C128.914 68.5528 129.243 66.0674 129.524 66.0674C129.759 66.0674 130.696 66.8646 131.587 67.8025ZM121.411 75.7747C121.411 76.0091 120.473 79.7138 119.301 84.0751C117.003 92.7038 115.549 99.4098 115.08 103.912C114.893 105.553 114.658 106.866 114.565 106.866C114.471 106.866 113.064 106.163 111.469 105.272C109.828 104.428 107.483 103.302 106.17 102.88C104.904 102.411 103.638 101.848 103.403 101.661C102.419 100.77 104.998 90.6873 108.374 82.2462C109.406 79.667 110.438 77.0877 110.672 76.4781C111.047 75.4933 111.329 75.4464 116.253 75.4464C119.066 75.4464 121.411 75.5871 121.411 75.7747ZM125.585 110.149C125.913 111.321 126.476 113.056 126.851 114.041C127.179 114.979 127.508 115.917 127.508 116.011C127.508 116.151 126.429 115.448 125.163 114.51L122.771 112.728L123.006 109.586C123.146 107.898 123.521 104.709 123.85 102.552L124.459 98.6595L124.741 103.349C124.881 105.928 125.257 108.976 125.585 110.149ZM88.4908 108.367C93.8838 112.728 103.872 121.357 107.343 124.592L110.391 127.453L108.75 127.219C105.608 126.703 100.074 125.249 97.4947 124.264C92.5238 122.388 92.2893 122.154 88.1626 113.76C86.0992 109.539 84.3641 105.928 84.3641 105.741C84.3641 105.131 85.0206 105.553 88.4908 108.367Z" fill="#966B40"/>
<path d="M148.141 93.6886C148.141 94.2044 148.376 94.7672 148.61 94.9079C148.892 95.0485 149.079 95.7989 149.079 96.5023C149.079 97.4871 148.657 98.1436 147.344 99.0346C145.656 100.254 145.656 100.254 145.703 103.443C145.89 110.008 146.406 116.62 146.781 117.23C147.579 118.543 158.599 119.106 167.134 118.309L171.354 117.886L171.495 110.852C171.636 103.021 171.261 101.239 169.432 101.239C168.541 101.239 168.306 101.004 168.306 100.066C168.306 99.4098 167.978 98.7533 167.603 98.6126C166.29 98.0967 166.899 97.4871 168.728 97.4871C170.792 97.4871 171.495 96.8774 170.604 95.7989C170.182 95.283 169.15 95.1423 166.008 95.2361C162.351 95.3768 161.975 95.4706 161.975 96.3147C161.975 96.9712 162.351 97.2995 163.289 97.3933C164.789 97.5809 164.977 98.1905 163.617 98.5657C162.96 98.7064 162.679 99.2222 162.679 100.019C162.679 101.004 162.444 101.239 161.6 101.239C160.193 101.239 159.396 102.88 159.396 105.694C159.396 107.804 159.396 107.804 157.708 107.804H156.067L156.16 104.006L156.254 100.254L154.519 99.0346C153.159 98.0498 152.831 97.4871 152.831 96.2209C152.831 95.3768 153.065 94.6734 153.3 94.6734C153.581 94.6734 153.769 94.2513 153.769 93.7355C153.769 92.8914 153.441 92.7976 150.955 92.7976C148.47 92.7976 148.141 92.8914 148.141 93.6886ZM153.3 93.7355C153.3 93.97 152.268 94.2044 150.955 94.2044C149.689 94.2044 148.61 93.97 148.61 93.7355C148.61 93.4541 149.689 93.2665 150.955 93.2665C152.268 93.2665 153.3 93.4541 153.3 93.7355ZM152.362 96.0802C152.362 97.3464 152.221 97.4871 150.955 97.4871C149.689 97.4871 149.548 97.3464 149.548 96.0802C149.548 94.8141 149.689 94.6734 150.955 94.6734C152.221 94.6734 152.362 94.8141 152.362 96.0802ZM170.088 96.4554C170.229 96.9243 169.385 97.0181 166.384 96.9243C163.757 96.8306 162.444 96.5961 162.304 96.174C162.163 95.7051 163.007 95.6113 166.008 95.7051C168.635 95.7989 169.948 96.0333 170.088 96.4554ZM153.816 99.3629L154.941 100.254H150.955H146.969L148.095 99.3629C148.751 98.8001 149.877 98.425 150.955 98.425C152.034 98.425 153.159 98.8001 153.816 99.3629ZM164.555 100.301C164.555 100.817 164.226 101.239 163.851 101.239C163.476 101.239 163.148 100.817 163.148 100.301C163.148 99.7849 163.476 99.3629 163.851 99.3629C164.226 99.3629 164.555 99.7849 164.555 100.301ZM165.962 100.301C165.962 100.817 165.774 101.239 165.493 101.239C165.258 101.239 165.024 100.817 165.024 100.301C165.024 99.7849 165.258 99.3629 165.493 99.3629C165.774 99.3629 165.962 99.7849 165.962 100.301ZM167.837 100.301C167.837 100.817 167.65 101.239 167.368 101.239C167.134 101.239 166.899 100.817 166.899 100.301C166.899 99.7849 167.134 99.3629 167.368 99.3629C167.65 99.3629 167.837 99.7849 167.837 100.301ZM155.645 104.287C155.645 107.335 155.551 107.804 154.847 107.804C154.332 107.804 153.534 106.913 152.831 105.553C152.174 104.334 151.33 103.349 150.955 103.349C150.111 103.349 148.141 106.725 148.141 108.226C148.141 108.883 148.47 109.774 148.939 110.243C149.736 111.134 152.128 111.415 152.596 110.618C153.3 109.445 153.534 110.43 153.3 113.76L153.065 117.418L150.721 117.558C149.454 117.605 148.048 117.464 147.672 117.183C146.922 116.714 146.406 111.696 146.313 104.381L146.266 100.77H150.955H155.645V104.287ZM170.651 102.646C171.12 103.537 171.026 103.583 165.727 103.583C162.773 103.583 160.334 103.49 160.334 103.396C160.334 101.942 161.038 101.708 165.54 101.708C169.666 101.708 170.182 101.801 170.651 102.646ZM152.55 106.163C153.394 107.757 153.394 108.038 152.784 109.164C151.94 110.712 150.674 110.946 149.454 109.867C148.423 108.883 148.517 107.194 149.83 105.225C150.814 103.724 151.377 103.912 152.55 106.163ZM171.026 110.946L170.886 117.418H167.603H164.32L164.18 115.682C164.039 114.229 164.18 113.947 164.789 114.182C165.211 114.369 166.384 114.135 167.415 113.666C169.197 112.822 169.244 112.775 169.244 110.383C169.244 107.992 169.197 107.945 167.368 107.101C165.586 106.303 165.352 106.303 163.804 107.007C162.913 107.429 161.647 107.804 161.038 107.804C160.006 107.804 159.865 107.616 159.865 106.163V104.521H165.493H171.167L171.026 110.946ZM167.134 107.663C168.635 108.367 168.775 108.648 168.775 110.383C168.775 112.118 168.635 112.4 167.134 113.103C164.414 114.416 163.992 113.947 163.945 109.305C163.945 108.414 164.226 107.523 164.602 107.288C165.446 106.772 165.211 106.725 167.134 107.663ZM163.617 109.211C163.617 109.492 161.647 109.68 158.693 109.68C155.738 109.68 153.769 109.492 153.769 109.211C153.769 108.929 155.738 108.742 158.693 108.742C161.647 108.742 163.617 108.929 163.617 109.211ZM163.054 110.712C163.382 111.04 163.617 112.681 163.617 114.698V118.121H158.693H153.769V114.698C153.769 112.681 154.003 111.04 154.332 110.712C154.66 110.383 156.348 110.149 158.693 110.149C161.038 110.149 162.726 110.383 163.054 110.712Z" fill="#966B40"/>
<path d="M157.192 112.822C156.207 113.197 156.489 115.213 157.567 115.823C158.318 116.198 158.88 116.198 159.678 115.823C162.304 114.651 159.865 111.696 157.192 112.822ZM159.771 114.182C159.959 115.448 158.834 115.917 157.708 115.073C156.958 114.557 156.958 114.369 157.474 113.713C158.365 112.681 159.584 112.962 159.771 114.182Z" fill="#966B40"/>
</svg>
