<svg width="157" height="248" viewBox="0 0 157 248" fill="none" xmlns="http://www.w3.org/2000/svg">
<path d="M60 0.760208C59.9 1.26021 59.9 1.96021 60 2.3602C60.2 3.26021 55.2 17.7602 34.1 79.0602C28.5 95.2602 23.1 111.06 22.1 114.06C17.8 127.26 13.5 132.46 5.4 134.56C1.7 135.46 0.5 136.26 0.3 137.96L0 140.06H26.9C49.7 140.06 54 139.86 54.4 138.56C55.2 136.66 54.9 136.56 47 135.06C39.4 133.66 34.5 131.16 32.9 127.66C32 125.56 32.8 122.36 38.4 105.96C42.1 95.3602 45.8 85.9602 46.7 84.9602C48.3 83.2602 50.2 83.0602 68.6 83.0602C83.6 83.0602 89.1 83.3602 89.8 84.2602C90.7 85.3602 94.1 94.5602 103.8 121.36C105.4 125.96 105.1 126.66 100.8 127.56C74 133.16 58.8 149.06 53.6 176.96C51.7 187.56 51.7 193.36 53.7 202.36C58.6 223.96 72.9 240.66 91.3 246.16C97.1 247.96 99.9 248.26 108 247.76C117.6 247.26 123 245.76 132.5 240.96C141.9 236.26 156.1 222.26 156.1 217.66C156.1 215.06 155.9 214.96 148.9 213.66C148 213.46 145 215.56 141.9 218.76C139 221.76 134.1 225.56 131.1 227.36C126 230.36 125 230.56 116.6 230.46C109.4 230.46 106.7 229.96 103 228.26C93.7 223.66 87.1 214.66 84 202.06C82.2 195.06 82.3 171.56 84 164.06C86 155.86 90.6 146.66 94.6 143.16L98.2 140.06H110.8H123.4L126.6 143.56C132.6 149.86 136.8 152.06 143 152.06C150.3 152.06 154.7 149.46 155.6 144.76C157.1 137.16 149.4 129.96 137.4 127.56C135.7 127.26 133.8 126.36 133.3 125.76C132.1 124.06 129.3 116.56 118.6 86.0602C113.5 71.4602 107.8 55.2602 105.8 50.0602C103.9 44.8602 99.3 31.9602 95.6 21.5602C91.9 11.0602 88.2 1.96021 87.3 1.26021C85.6 -0.0397949 60.2 -0.539795 60 0.760208ZM70.5 31.2602C71.3 32.5602 73.3 37.3602 75 42.0602C76.6 46.7602 79.4 54.3602 81.2 59.0602C82.9 63.7602 84.4 68.6602 84.5 70.0602L84.6 72.5602L68.3 72.8602C54.5 73.0602 52 72.8602 51.5 71.5602C50.8 69.9602 62.3 35.0602 64.7 31.2602C65.5 30.0602 66.8 29.0602 67.6 29.0602C68.4 29.0602 69.7 30.0602 70.5 31.2602Z" fill="#966B40"/>
<path d="M100.4 172.76C106.3 173.26 106.6 175.06 100.8 175.06C96.5 175.06 96.5 175.16 96.9 178.06C97.2 180.16 96.7 181.86 95.5 183.36L93.6 185.56L95.9 183.66C97.2 182.46 98.1 180.66 98.1 178.86C98.1 176.26 98.4 176.06 101.6 176.26C105.5 176.46 106.6 175.86 105.8 173.56C105.3 172.46 103.9 172.06 100.4 172.26L95.6 172.46L100.4 172.76Z" fill="#966B40"/>
<path d="M121.1 179.06C121.1 180.56 121.8 181.06 123.6 181.06C125 181.06 126.1 181.46 126.1 182.06C126.1 182.56 125.4 183.06 124.6 183.06C123.8 183.06 123.1 183.46 123.1 184.06C123.1 184.56 123.8 184.76 124.6 184.46C125.6 184.06 126.1 184.46 126.1 185.96C126.1 187.66 125.5 188.06 122.7 188.06C120.8 188.06 119 188.36 118.8 188.76C118.5 189.26 122.6 189.36 127.9 189.16C133.3 188.86 136.6 188.56 135.4 188.36C133.9 188.06 133.1 187.16 133.1 185.96C133.1 184.86 132.4 183.76 131.6 183.46C128.9 182.36 130 181.06 133.5 181.06C135.4 181.06 137.2 180.76 137.4 180.26C137.7 179.86 134.4 179.66 130 179.86C125 180.06 122.1 179.86 122.1 179.16C122.1 178.56 125.3 177.96 129.4 177.76L136.6 177.46L128.9 177.26C121.7 177.06 121.1 177.26 121.1 179.06ZM129.1 186.06C129.1 187.16 128.7 188.06 128.1 188.06C127.6 188.06 127.1 187.16 127.1 186.06C127.1 184.96 127.6 184.06 128.1 184.06C128.7 184.06 129.1 184.96 129.1 186.06ZM132.1 186.06C132.1 187.16 131.7 188.06 131.1 188.06C130.6 188.06 130.1 187.16 130.1 186.06C130.1 184.96 130.6 184.06 131.1 184.06C131.7 184.06 132.1 184.96 132.1 186.06Z" fill="#966B40"/>
<path d="M91.4 186.66C91.2 187.26 91.2 190.86 91.4 194.66L91.7 201.56L91.9 194.26L92.1 187.06H101C108.7 187.06 110 187.26 110.4 188.76C110.8 190.36 110.9 190.36 111 188.86C111 187.96 110.6 186.86 110.1 186.56C108.2 185.36 91.9 185.46 91.4 186.66Z" fill="#966B40"/>
<path d="M116.7 192.56C116.4 193.46 116.1 195.76 116.1 197.66C116.1 200.76 115.8 201.06 113.2 201.06C110.6 201.06 110.2 200.66 109.8 197.76L109.4 194.56L109.3 197.76C109.1 201.06 106.8 202.36 105.8 199.76C105.5 199.16 105.2 199.56 105.2 200.76C105.1 201.96 104.1 203.66 102.9 204.46C100.4 206.26 101.2 206.56 104.2 205.06C105.2 204.46 106.1 204.36 106.1 204.76C106.1 205.66 124 205.86 124.3 205.06C124.3 204.76 124.5 203.36 124.6 201.86C124.8 199.56 124.5 199.26 123 200.06C122 200.66 120.3 201.06 119.2 201.06C117.5 201.06 117.1 200.46 117.1 197.56V194.06H128.1C134.2 194.06 139.1 193.76 139.1 193.26C139.1 192.86 134.5 192.66 129 192.86C122.1 193.06 118.6 192.86 118.1 192.06C117.6 191.26 117.2 191.46 116.7 192.56ZM124.1 203.06C124.1 203.66 120.4 204.06 115.1 204.06C109.8 204.06 106.1 203.66 106.1 203.06C106.1 202.46 109.8 202.06 115.1 202.06C120.4 202.06 124.1 202.46 124.1 203.06Z" fill="#966B40"/>
<path d="M134.1 204.86C134.1 208.26 133.7 208.86 130.8 210.26C127.1 212.06 125.6 211.56 124.8 208.56C124.6 207.46 124.3 209.46 124.2 213.06L124.1 219.56L130.8 219.26C134.6 219.06 137.9 218.56 138.3 218.26C138.7 217.86 135.9 217.66 132.1 217.86L125.1 218.26V215.06C125.1 212.96 125.5 212.06 126.4 212.36C127 212.56 129.3 211.96 131.4 210.86C134.7 209.16 135.1 208.66 135.1 205.06C135.1 202.86 134.9 201.06 134.6 201.06C134.3 201.06 134.1 202.76 134.1 204.86Z" fill="#966B40"/>
<path d="M92.3 211.66C92.2 214.76 92.6 217.26 93.4 217.86C94 218.36 97.2 219.06 100.4 219.26L106.1 219.56L105.9 213.06L105.7 206.56L105.4 212.36L105 218.16L99.3 217.86L93.6 217.56L93 212.06L92.4 206.56L92.3 211.66Z" fill="#966B40"/>
<path d="M117.8 211.56C118.5 213.66 116.3 215.16 113.6 214.46C111.8 214.06 111.8 214.06 113.3 215.06C114.6 215.86 115.6 215.86 117.1 215.06C119.2 213.96 119.8 211.56 118.1 210.56C117.5 210.16 117.4 210.66 117.8 211.56Z" fill="#966B40"/>
<path d="M110.9 220.76C113.2 220.96 117 220.96 119.4 220.76C121.7 220.56 119.8 220.36 115.1 220.36C110.4 220.36 108.5 220.56 110.9 220.76Z" fill="#966B40"/>
</svg>
