<svg width="236" height="61" viewBox="0 0 236 61" fill="none" xmlns="http://www.w3.org/2000/svg">
<path d="M30.1288 27.5809C30.1288 27.835 30.2461 28.0403 30.4807 28.1967C30.725 28.3433 31.0036 28.4166 31.3163 28.4166C31.6291 28.4166 31.8881 28.3384 32.0934 28.182C32.3084 28.0158 32.455 27.9328 32.5332 27.9328C32.6114 27.9328 32.6505 28.0403 32.6505 28.2553C32.6505 28.4606 32.5528 28.6365 32.3573 28.7831C30.8912 29.8583 29.8991 30.3959 29.3811 30.3959C28.7555 30.3959 28.2473 29.7459 27.8563 28.4459C27.827 28.3482 27.8025 28.3042 27.783 28.314C26.571 29.223 25.8086 29.7703 25.4958 29.956C24.6944 30.4154 23.888 30.4887 23.0767 30.1759C22.2753 29.8632 21.6937 29.3451 21.3321 28.6218C21.1561 28.2504 21.0682 27.8546 21.0682 27.4343C21.0682 26.6035 21.376 25.9437 21.9918 25.455C22.6076 24.9663 23.7805 24.4972 25.5105 24.0475C26.097 23.8912 26.6199 23.6908 27.0793 23.4464C27.5386 23.2021 27.7781 23.0457 27.7977 22.9773C27.827 22.9089 27.8416 22.8453 27.8416 22.7867V19.9717C27.8416 18.8673 27.4116 18.0902 26.5515 17.6406C26.268 17.494 25.9259 17.4207 25.5252 17.4207C25.1342 17.4207 24.7335 17.5771 24.323 17.8898C23.9222 18.2026 23.7218 18.6473 23.7218 19.224L23.7951 19.7958C23.7365 19.9131 23.3846 20.1086 22.7395 20.3822C22.0944 20.6559 21.723 20.8025 21.6253 20.8221C21.4689 20.8221 21.3907 20.6364 21.3907 20.265C21.3907 19.8838 21.5031 19.4635 21.7279 19.0041C21.9527 18.5447 22.2704 18.1244 22.6809 17.7432C23.6388 16.8538 24.7335 16.4091 25.965 16.4091C27.1965 16.4091 28.1984 16.7512 28.9706 17.4353C29.7427 18.1098 30.1288 18.9161 30.1288 19.8544V27.5809ZM23.37 27.1557C23.37 27.6249 23.5508 28.0354 23.9124 28.3873C24.2741 28.7294 24.6846 28.9004 25.144 28.9004C25.6131 28.9004 26.18 28.7049 26.8447 28.314C27.5093 27.9132 27.8416 27.5027 27.8416 27.0824V24.1062C27.8416 23.9987 27.8172 23.9449 27.7683 23.9449C27.7195 23.9449 27.6853 23.9498 27.6657 23.9596L24.2643 25.543C23.9124 25.7971 23.673 26.0122 23.5459 26.1881C23.4286 26.364 23.37 26.6866 23.37 27.1557ZM42.0777 29.7654C42.0777 29.9218 41.9897 30 41.8138 30H33.7648C33.667 29.9805 33.6182 29.912 33.6182 29.7947C33.6182 29.6188 33.8479 29.5015 34.3072 29.4429C35.3628 29.2865 35.8906 28.7294 35.8906 27.7715V18.8868C35.8906 18.7793 35.832 18.7255 35.7147 18.7255H34.1166C33.9994 18.7255 33.8869 18.6913 33.7794 18.6229C33.6719 18.5447 33.6182 18.447 33.6182 18.3297C33.6182 18.2026 33.6768 18.1049 33.7941 18.0365C33.9603 17.9387 34.3512 17.8068 34.967 17.6406C35.5828 17.4744 35.8906 17.2008 35.8906 16.8196V16.3358C35.8906 12.8171 36.653 10.1096 38.1778 8.21344C39.0281 7.14806 40.3232 6.32703 42.063 5.75036C42.5908 5.57442 43.1137 5.48646 43.6318 5.48646C44.1498 5.48646 44.7558 5.62329 45.4498 5.89697C46.1437 6.16087 46.4907 6.48342 46.4907 6.86461C46.4907 6.9428 46.476 7.01122 46.4467 7.06987C46.4272 7.12851 46.4027 7.20182 46.3734 7.28978L45.7723 8.57997C45.6941 8.73636 45.6013 8.81455 45.4937 8.81455C45.4644 8.81455 45.2543 8.66305 44.8633 8.36005C44.4723 8.04728 44.0569 7.76383 43.6171 7.5097C43.187 7.2458 42.6788 7.11385 42.0923 7.11385C40.9488 7.11385 40.0838 7.40707 39.4973 7.99352C38.9109 8.57997 38.5443 9.24461 38.3977 9.98745C38.2511 10.7205 38.1778 11.5318 38.1778 12.4212V16.6876C38.1778 16.7658 38.2267 16.8049 38.3244 16.8049H41.1833C41.457 16.8049 41.633 16.8342 41.7111 16.8929C41.7991 16.9417 41.8822 17.1177 41.9604 17.4207C42.0386 17.7139 42.0777 17.9876 42.0777 18.2417C42.0777 18.4861 42.0532 18.6278 42.0044 18.6669C41.9555 18.706 41.8529 18.7255 41.6965 18.7255H38.3684C38.2413 18.7255 38.1778 18.7744 38.1778 18.8721V27.4783C38.1778 28.876 39.3898 29.5748 41.8138 29.5748C41.9897 29.5944 42.0777 29.6579 42.0777 29.7654ZM52.1206 19.4879C52.0033 19.4684 51.8323 19.4048 51.6075 19.2973C50.7962 18.9259 50.1609 18.7402 49.7015 18.7402C49.2421 18.7402 48.7583 19.0285 48.25 19.6052C47.7516 20.1721 47.5023 20.6852 47.5023 21.1446V27.7715C47.5023 28.5046 47.9275 28.9933 48.7779 29.2376C49.1493 29.3354 49.4962 29.4087 49.8188 29.4575C50.1413 29.4966 50.3466 29.5357 50.4346 29.5748C50.5323 29.6139 50.5812 29.6921 50.5812 29.8094C50.5812 29.9169 50.5323 29.9805 50.4346 30H43.0893C42.9916 29.9805 42.9427 29.912 42.9427 29.7947C42.9427 29.6188 43.1724 29.5015 43.6318 29.4429C44.6874 29.2865 45.2152 28.7294 45.2152 27.7715V20.0157C45.2152 19.6052 44.9904 19.3218 44.5408 19.1654C44.3453 19.0969 44.1351 19.0432 43.9103 19.0041C43.6855 18.9552 43.5047 18.9112 43.3679 18.8721C43.2408 18.833 43.1577 18.7988 43.1186 18.7695C43.0893 18.7304 43.0746 18.6571 43.0746 18.5496C43.0746 18.4323 43.1479 18.3346 43.2946 18.2564L47.0332 16.497C47.1505 16.4384 47.2238 16.4091 47.2531 16.4091C47.4192 16.4091 47.5023 16.5263 47.5023 16.7609V19.136C47.5023 19.2533 47.5316 19.312 47.5903 19.312C47.6685 19.312 47.8689 19.0823 48.1914 18.6229C49.1199 17.3229 49.8872 16.673 50.4932 16.673C50.8353 16.673 51.3582 16.8098 52.062 17.0835C52.7755 17.3571 53.1322 17.5868 53.1322 17.7726C53.1322 17.9974 53.0198 18.3395 52.795 18.7988C52.5702 19.2582 52.3454 19.4879 52.1206 19.4879ZM54.2465 23.4171C54.2465 21.4916 54.9258 19.8398 56.2844 18.4616C57.6528 17.0737 59.2899 16.3797 61.1959 16.3797C63.1019 16.3797 64.7586 17.0542 66.166 18.403C67.5735 19.742 68.2773 21.3988 68.2773 23.3731C68.2773 25.3475 67.6077 27.014 66.2687 28.3726C64.9394 29.7214 63.268 30.3959 61.2545 30.3959C59.2411 30.3959 57.5697 29.7117 56.2404 28.3433C54.9111 26.9749 54.2465 25.3328 54.2465 23.4171ZM57.8971 27.185C58.855 28.7978 60.1598 29.6041 61.8117 29.6041C63.0921 29.6041 64.0695 29.091 64.7439 28.0647C65.4281 27.0384 65.7702 25.7776 65.7702 24.2821C65.7702 22.7867 65.2913 21.2521 64.3334 19.6785C63.3853 18.1049 62.1049 17.3181 60.4922 17.3181C59.3095 17.3181 58.3761 17.8312 57.6919 18.8575C57.0175 19.874 56.6802 21.1691 56.6802 22.7427C56.6802 24.3066 57.0859 25.7873 57.8971 27.185ZM79.4638 17.0248C79.8938 17.1714 80.1577 17.2447 80.2555 17.2447C80.3532 17.2447 80.4119 17.2447 80.4314 17.2447C80.4607 17.235 80.4949 17.1714 80.534 17.0542V9.48897C80.534 9.07845 80.3092 8.795 79.8596 8.63862C79.6641 8.5702 79.454 8.51644 79.2292 8.47734C79.0044 8.42847 78.8236 8.38449 78.6867 8.34539C78.5597 8.3063 78.4766 8.27209 78.4375 8.24276C78.4082 8.20367 78.3935 8.13036 78.3935 8.02285C78.3935 7.90556 78.4668 7.80781 78.6134 7.72962L82.352 5.97028C82.4693 5.91163 82.5426 5.88231 82.5719 5.88231C82.7381 5.88231 82.8212 5.9996 82.8212 6.23418V27.1117C82.87 27.5418 82.9922 27.8497 83.1877 28.0354C83.3832 28.2211 83.7009 28.314 84.1407 28.314L84.991 28.2553C85.0497 28.2553 85.079 28.314 85.079 28.4313C85.079 28.5388 85.0057 28.6267 84.8591 28.6952L80.9592 30.3079C80.8419 30.3665 80.7393 30.3959 80.6513 30.3959C80.5731 30.3959 80.534 30.2737 80.534 30.0293V28.6952C80.534 28.5974 80.5096 28.5485 80.4607 28.5485C80.3923 28.5485 79.9867 28.7685 79.2438 29.2083C76.9665 30.5571 75.0459 30.7575 73.482 29.8094C72.2309 29.047 71.3854 27.8399 70.9456 26.1881C70.7403 25.4159 70.6377 24.5998 70.6377 23.7397C70.6377 22.8698 70.8136 22.0096 71.1655 21.1593C71.5272 20.2992 72.0208 19.5466 72.6463 18.9015C74.0245 17.494 75.6861 16.7902 77.6311 16.7902C78.4228 16.7902 79.0337 16.8684 79.4638 17.0248ZM72.8516 23.3145C72.8516 24.7904 73.2621 26.0855 74.0831 27.1997C74.9041 28.3042 76.0477 28.8564 77.5138 28.8564C78.1589 28.8564 78.8236 28.7 79.5077 28.3873C80.1919 28.0647 80.534 27.8204 80.534 27.6542V20.089C80.534 19.9033 80.407 19.6834 80.1528 19.4293C79.3709 18.3541 78.33 17.8165 77.03 17.8165C75.7398 17.8165 74.7184 18.3639 73.9658 19.4586C73.223 20.5435 72.8516 21.8288 72.8516 23.3145ZM86.3985 30C86.3008 29.9805 86.2519 29.912 86.2519 29.7947C86.2519 29.6188 86.4816 29.5015 86.941 29.4429C87.9966 29.2865 88.5244 28.7294 88.5244 27.7715V20.0157C88.5244 19.6052 88.2996 19.3218 87.85 19.1654C87.6545 19.0969 87.4443 19.0432 87.2195 19.0041C86.9947 18.9552 86.8139 18.9112 86.6771 18.8721C86.55 18.833 86.4669 18.7988 86.4278 18.7695C86.3985 18.7304 86.3839 18.6571 86.3839 18.5496C86.3839 18.4323 86.4572 18.3346 86.6038 18.2564L90.3424 16.497C90.4597 16.4384 90.533 16.4091 90.5623 16.4091C90.7285 16.4091 90.8115 16.5263 90.8115 16.7609V27.7715C90.8115 28.7294 91.3393 29.2865 92.395 29.4429C92.8543 29.5015 93.084 29.6041 93.084 29.7508C93.084 29.8974 93.0352 29.9805 92.9374 30H86.3985ZM89.448 12.2893C89.0473 12.2893 88.6906 12.1622 88.3778 11.9081C88.0748 11.6539 87.9233 11.3021 87.9233 10.8525C87.9233 10.3931 88.0699 10.0314 88.3631 9.76753C88.6563 9.50363 89.0033 9.37168 89.4041 9.37168C89.8146 9.37168 90.1567 9.52806 90.4303 9.84084C90.7138 10.1536 90.8555 10.4908 90.8555 10.8525C90.8555 11.2141 90.7236 11.5464 90.4597 11.8494C90.1958 12.1426 89.8586 12.2893 89.448 12.2893ZM98.4061 18.7255C98.3474 18.7255 98.3181 18.7695 98.3181 18.8575V26.9505C98.3181 27.5369 98.4451 27.9963 98.6993 28.3286C98.9632 28.6609 99.2955 28.8271 99.6962 28.8271C100.097 28.8271 100.444 28.7636 100.737 28.6365C101.04 28.4997 101.299 28.3531 101.514 28.1967C101.739 28.0403 101.939 27.8986 102.115 27.7715C102.291 27.6347 102.448 27.5662 102.584 27.5662C102.721 27.5662 102.79 27.6004 102.79 27.6689C102.79 27.9034 102.765 28.0549 102.716 28.1234C101.544 29.6384 100.41 30.3959 99.315 30.3959C98.2301 30.3959 97.4091 30.0538 96.852 29.3696C96.3046 28.6756 96.0309 27.8497 96.0309 26.8918V18.7255H94.9313C94.6577 18.7255 94.5111 18.6376 94.4915 18.4616C94.4817 18.2857 94.5111 18.1733 94.5795 18.1244C95.0975 17.7921 95.811 17.1959 96.72 16.3358C96.8178 16.2282 96.9497 16.067 97.1159 15.8519C97.282 15.6369 97.5215 15.3437 97.8343 14.9723C98.1568 14.6008 98.4012 14.4151 98.5673 14.4151C98.7335 14.4151 98.8166 14.4836 98.8166 14.6204C98.8166 14.6399 98.6504 15.2801 98.3181 16.541C98.3181 16.7169 98.3963 16.8098 98.5527 16.8196H102.291C102.721 16.8196 102.936 17.4256 102.936 18.6376C102.936 18.6962 102.897 18.7255 102.819 18.7255H98.4061ZM106.704 22.2735C106.538 22.2735 106.455 22.6303 106.455 23.3438C106.455 24.8588 106.905 26.1294 107.804 27.1557C108.703 28.182 109.817 28.6952 111.147 28.6952C112.486 28.6952 113.771 28.1185 115.003 26.9651C115.022 26.9456 115.047 26.9358 115.076 26.9358H115.149C115.208 26.9358 115.262 26.9847 115.31 27.0824C115.369 27.1704 115.423 27.229 115.472 27.2584C114.338 28.6365 113.004 29.5895 111.469 30.1173C110.941 30.303 110.345 30.3959 109.681 30.3959C109.016 30.3959 108.341 30.215 107.657 29.8534C106.973 29.482 106.387 28.9982 105.898 28.4019C104.862 27.1606 104.344 25.6163 104.344 23.769C104.344 21.9119 104.906 20.221 106.03 18.6962C107.164 17.1714 108.718 16.4091 110.692 16.4091C112.109 16.4091 113.268 17.0444 114.167 18.315C115.066 19.5759 115.516 20.6852 115.516 21.6431C115.516 22.0634 115.413 22.2735 115.208 22.2735H106.704ZM106.866 20.8661C106.866 21.0518 106.954 21.1446 107.129 21.1446H112.657C112.911 21.1446 113.038 20.9931 113.038 20.6901C113.038 19.9864 112.72 19.268 112.085 18.5349C111.459 17.7921 110.77 17.4207 110.018 17.4207C109.285 17.4207 108.615 17.753 108.009 18.4176C107.413 19.0823 107.032 19.8398 106.866 20.6901V20.8661Z" fill="#9C6A4B"/>
<path d="M88.3191 38.3424C88.3191 39.0265 87.9232 39.3686 87.1315 39.3686C86.7308 39.3686 86.3887 39.2562 86.1052 39.0314C85.8316 38.7969 85.6165 38.6014 85.4602 38.445C85.3135 38.2788 85.1572 38.1273 84.991 37.9905C84.2873 37.4138 83.4271 37.3503 82.4106 37.7999C81.4039 38.2495 80.6268 39.2074 80.0795 40.6735C79.7765 41.4847 79.625 42.2911 79.625 43.0926C79.625 44.8128 80.016 46.2203 80.7979 47.315C81.5798 48.3999 82.7771 48.9424 84.3899 48.9424C85.5921 48.9424 86.6721 48.4048 87.63 47.3297C87.9232 47.0071 88.0992 46.8459 88.1578 46.8459C88.2165 46.8459 88.28 46.8752 88.3484 46.9338C88.4168 46.9925 88.451 47.0804 88.451 47.1977C88.451 47.3052 88.4217 47.3883 88.3631 47.447C86.8676 49.5289 84.9861 50.5698 82.7185 50.5698C81.0764 50.5698 79.7276 49.9589 78.672 48.7372C77.6262 47.5154 77.1033 46.1177 77.1033 44.544C77.113 41.6314 77.8168 39.5348 79.2145 38.2544C80.446 37.1304 82.2005 36.5683 84.4779 36.5683C85.8853 36.5683 86.8188 36.7101 87.2781 36.9935C87.7375 37.277 88.0601 37.6337 88.2458 38.0638C88.2947 38.1615 88.3191 38.2544 88.3191 38.3424ZM90.5769 43.5911C90.5769 41.6656 91.2562 40.0137 92.6148 38.6356C93.9832 37.2476 95.6204 36.5537 97.5263 36.5537C99.4323 36.5537 101.089 37.2281 102.496 38.5769C103.904 39.916 104.608 41.5727 104.608 43.5471C104.608 45.5215 103.938 47.188 102.599 48.5466C101.27 49.8954 99.5984 50.5698 97.585 50.5698C95.5715 50.5698 93.9001 49.8856 92.5708 48.5172C91.2416 47.1489 90.5769 45.5068 90.5769 43.5911ZM94.2276 47.359C95.1854 48.9717 96.4903 49.7781 98.1421 49.7781C99.4225 49.7781 100.4 49.265 101.074 48.2387C101.759 47.2124 102.101 45.9515 102.101 44.4561C102.101 42.9606 101.622 41.4261 100.664 39.8525C99.7157 38.2788 98.4353 37.492 96.8226 37.492C95.6399 37.492 94.7065 38.0051 94.0223 39.0314C93.3479 40.0479 93.0107 41.343 93.0107 42.9167C93.0107 44.4805 93.4163 45.9613 94.2276 47.359ZM113.859 40.1457C113.859 40.3607 113.776 40.4682 113.61 40.4682C113.453 40.4682 113.331 40.3509 113.243 40.1164C113.009 39.4713 112.657 38.8995 112.188 38.401C111.728 37.9025 111.156 37.6533 110.472 37.6533C109.573 37.6533 108.967 38.1029 108.654 39.0021C108.556 39.3051 108.508 39.6179 108.508 39.9404C108.508 40.263 108.713 40.6246 109.123 41.0254C109.534 41.4163 110.208 41.8855 111.147 42.4328C112.085 42.9802 112.769 43.4445 113.199 43.8256C114.177 44.6955 114.665 45.7023 114.665 46.8459C114.665 47.9894 114.245 48.8984 113.404 49.5728C112.564 50.2375 111.586 50.5698 110.472 50.5698C109.876 50.5698 109.333 50.4867 108.845 50.3206C108.366 50.1642 108.087 50.086 108.009 50.086C107.941 50.086 107.823 50.1642 107.657 50.3206C107.501 50.4867 107.374 50.5698 107.276 50.5698H107.027C106.968 50.5698 106.895 50.042 106.807 48.9864C106.719 47.9308 106.675 47.3052 106.675 47.1098C106.675 46.9143 106.69 46.8068 106.719 46.7872C106.758 46.7677 106.817 46.7579 106.895 46.7579C106.973 46.7579 107.037 46.7823 107.085 46.8312C107.144 46.8801 107.193 46.9436 107.232 47.0218C107.271 47.0902 107.3 47.1635 107.32 47.2417C107.349 47.3199 107.413 47.4665 107.511 47.6815C108.175 49.0988 109.202 49.8074 110.589 49.8074C111.205 49.8074 111.699 49.5826 112.07 49.133C112.442 48.6736 112.627 48.1654 112.627 47.6082C112.627 47.0511 112.481 46.582 112.188 46.2008C111.894 45.8196 111.528 45.4726 111.088 45.1598C110.658 44.847 110.189 44.544 109.68 44.2508C107.706 43.0975 106.719 41.8219 106.719 40.4242C106.719 39.3784 107.169 38.4792 108.068 37.7266C108.967 36.9642 109.891 36.583 110.839 36.583C111.787 36.583 112.486 36.6856 112.935 36.8909C113.395 37.0962 113.663 37.2721 113.742 37.4187C113.82 37.5555 113.859 38.0149 113.859 38.7969V40.1457ZM136.129 45.5557L136.1 42.4622C136.1 41.2013 135.992 40.3167 135.777 39.8085C135.562 39.3002 135.289 38.919 134.956 38.6649C134.624 38.401 134.174 38.269 133.608 38.269C133.05 38.269 131.863 38.7089 130.045 39.5886C129.801 39.7352 129.673 39.872 129.664 39.9991V47.8868C129.664 48.874 130.192 49.4409 131.247 49.5875C131.706 49.6559 131.936 49.7683 131.936 49.9247C131.936 50.0713 131.887 50.1544 131.79 50.174H125.251C125.153 50.1544 125.104 50.086 125.104 49.9687C125.104 49.783 125.334 49.6559 125.793 49.5875C126.849 49.4409 127.377 48.874 127.377 47.8868V40.5855C127.377 39.051 126.428 38.2837 124.532 38.2837C123.838 38.2837 122.876 38.6942 121.644 39.5153C121.331 39.7205 121.102 39.9111 120.955 40.087V47.8868C120.955 48.874 121.483 49.4409 122.538 49.5875C122.998 49.6559 123.227 49.7683 123.227 49.9247C123.227 50.0713 123.179 50.1544 123.081 50.174H116.542C116.444 50.1544 116.395 50.086 116.395 49.9687C116.395 49.783 116.625 49.6559 117.084 49.5875C118.14 49.4409 118.668 48.8838 118.668 47.9161V39.4713C118.668 39.0608 118.443 38.7773 117.993 38.6209C117.798 38.5525 117.588 38.4987 117.363 38.4596C117.138 38.4108 116.957 38.3668 116.82 38.3277C116.693 38.2886 116.61 38.2544 116.571 38.2251C116.542 38.186 116.527 38.1127 116.527 38.0051C116.527 37.8879 116.601 37.7901 116.747 37.7119L120.486 35.9526C120.603 35.8939 120.676 35.8646 120.706 35.8646C120.872 35.8646 120.955 35.9819 120.955 36.2165V38.6502C120.965 38.7089 120.999 38.7382 121.058 38.7382C121.126 38.7382 121.287 38.6698 121.541 38.5329C121.805 38.3961 122.147 38.2055 122.568 37.9612C122.988 37.707 123.54 37.4138 124.224 37.0815C124.918 36.7492 125.651 36.583 126.424 36.583C127.665 36.583 128.554 37.1157 129.092 38.1811C129.297 38.6111 129.483 38.7969 129.649 38.7382C129.815 38.6698 130.074 38.5476 130.426 38.3717C131.257 37.9612 132.097 37.5604 132.948 37.1695C133.798 36.7785 134.502 36.583 135.059 36.583C137.317 36.583 138.446 38.6405 138.446 42.7554L138.314 47.0365V47.8868C138.314 48.6492 138.695 49.1477 139.457 49.3822C139.78 49.4898 140.088 49.568 140.381 49.6168C140.684 49.6559 140.88 49.695 140.967 49.7341C141.065 49.7732 141.114 49.8514 141.114 49.9687C141.114 50.086 141.065 50.1544 140.967 50.174H133.901C133.803 50.1544 133.754 50.086 133.754 49.9687C133.754 49.783 133.984 49.6559 134.443 49.5875C135.489 49.4409 136.012 48.8349 136.012 47.7695C136.09 47.2808 136.129 46.5429 136.129 45.5557ZM144.559 42.4475C144.393 42.4475 144.31 42.8042 144.31 43.5178C144.31 45.0328 144.76 46.3034 145.659 47.3297C146.558 48.356 147.673 48.8691 149.002 48.8691C150.341 48.8691 151.626 48.2924 152.858 47.1391C152.877 47.1195 152.902 47.1098 152.931 47.1098H153.004C153.063 47.1098 153.117 47.1586 153.166 47.2564C153.224 47.3443 153.278 47.403 153.327 47.4323C152.193 48.8105 150.859 49.7634 149.324 50.2912C148.797 50.4769 148.2 50.5698 147.536 50.5698C146.871 50.5698 146.197 50.389 145.512 50.0273C144.828 49.6559 144.242 49.1721 143.753 48.5759C142.717 47.3346 142.199 45.7902 142.199 43.9429C142.199 42.0858 142.761 40.3949 143.885 38.8702C145.019 37.3454 146.573 36.583 148.547 36.583C149.965 36.583 151.123 37.2183 152.022 38.489C152.921 39.7498 153.371 40.8592 153.371 41.8171C153.371 42.2373 153.268 42.4475 153.063 42.4475H144.559ZM144.721 41.04C144.721 41.2257 144.809 41.3186 144.985 41.3186H150.512C150.766 41.3186 150.893 41.1671 150.893 40.8641C150.893 40.1603 150.575 39.4419 149.94 38.7089C149.315 37.966 148.626 37.5946 147.873 37.5946C147.14 37.5946 146.47 37.927 145.864 38.5916C145.268 39.2562 144.887 40.0137 144.721 40.8641V41.04ZM159.397 38.8995C159.338 38.8995 159.309 38.9435 159.309 39.0314V47.1244C159.309 47.7109 159.436 48.1703 159.69 48.5026C159.954 48.8349 160.286 49.0011 160.687 49.0011C161.088 49.0011 161.435 48.9375 161.728 48.8105C162.031 48.6736 162.29 48.527 162.505 48.3706C162.73 48.2142 162.93 48.0725 163.106 47.9454C163.282 47.8086 163.438 47.7402 163.575 47.7402C163.712 47.7402 163.78 47.7744 163.78 47.8428C163.78 48.0774 163.756 48.2289 163.707 48.2973C162.534 49.8123 161.4 50.5698 160.306 50.5698C159.221 50.5698 158.4 50.2277 157.843 49.5435C157.295 48.8496 157.022 48.0236 157.022 47.0658V38.8995H155.922C155.648 38.8995 155.502 38.8115 155.482 38.6356C155.472 38.4596 155.502 38.3472 155.57 38.2984C156.088 37.966 156.802 37.3698 157.711 36.5097C157.808 36.4022 157.94 36.2409 158.106 36.0259C158.273 35.8109 158.512 35.5176 158.825 35.1462C159.147 34.7748 159.392 34.5891 159.558 34.5891C159.724 34.5891 159.807 34.6575 159.807 34.7943C159.807 34.8139 159.641 35.4541 159.309 36.715C159.309 36.8909 159.387 36.9837 159.543 36.9935H163.282C163.712 36.9935 163.927 37.5995 163.927 38.8115C163.927 38.8702 163.888 38.8995 163.81 38.8995H159.397ZM165.334 50.174C165.237 50.1544 165.188 50.086 165.188 49.9687C165.188 49.7928 165.418 49.6755 165.877 49.6168C166.933 49.4604 167.46 48.9033 167.46 47.9454V40.1897C167.46 39.7792 167.235 39.4957 166.786 39.3393C166.59 39.2709 166.38 39.2171 166.155 39.178C165.931 39.1292 165.75 39.0852 165.613 39.0461C165.486 39.007 165.403 38.9728 165.364 38.9435C165.334 38.9044 165.32 38.8311 165.32 38.7235C165.32 38.6063 165.393 38.5085 165.54 38.4303L169.278 36.671C169.396 36.6123 169.469 36.583 169.498 36.583C169.664 36.583 169.747 36.7003 169.747 36.9349V47.9454C169.747 48.9033 170.275 49.4604 171.331 49.6168C171.79 49.6755 172.02 49.7781 172.02 49.9247C172.02 50.0713 171.971 50.1544 171.873 50.174H165.334ZM168.384 32.4632C167.983 32.4632 167.626 32.3361 167.314 32.082C167.011 31.8279 166.859 31.476 166.859 31.0264C166.859 30.567 167.006 30.2054 167.299 29.9415C167.592 29.6776 167.939 29.5456 168.34 29.5456C168.75 29.5456 169.093 29.702 169.366 30.0148C169.65 30.3276 169.791 30.6648 169.791 31.0264C169.791 31.3881 169.659 31.7204 169.396 32.0234C169.132 32.3166 168.794 32.4632 168.384 32.4632ZM185.288 38.3424C185.288 39.0265 184.892 39.3686 184.101 39.3686C183.7 39.3686 183.358 39.2562 183.074 39.0314C182.801 38.7969 182.586 38.6014 182.429 38.445C182.283 38.2788 182.126 38.1273 181.96 37.9905C181.257 37.4138 180.396 37.3503 179.38 37.7999C178.373 38.2495 177.596 39.2074 177.049 40.6735C176.746 41.4847 176.594 42.2911 176.594 43.0926C176.594 44.8128 176.985 46.2203 177.767 47.315C178.549 48.3999 179.746 48.9424 181.359 48.9424C182.561 48.9424 183.641 48.4048 184.599 47.3297C184.892 47.0071 185.068 46.8459 185.127 46.8459C185.186 46.8459 185.249 46.8752 185.318 46.9338C185.386 46.9925 185.42 47.0804 185.42 47.1977C185.42 47.3052 185.391 47.3883 185.332 47.447C183.837 49.5289 181.955 50.5698 179.688 50.5698C178.046 50.5698 176.697 49.9589 175.641 48.7372C174.595 47.5154 174.073 46.1177 174.073 44.544C174.082 41.6314 174.786 39.5348 176.184 38.2544C177.415 37.1304 179.17 36.5683 181.447 36.5683C182.855 36.5683 183.788 36.7101 184.247 36.9935C184.707 37.277 185.029 37.6337 185.215 38.0638C185.264 38.1615 185.288 38.2544 185.288 38.3424ZM187.546 43.5911C187.546 41.6656 188.225 40.0137 189.584 38.6356C190.952 37.2476 192.59 36.5537 194.496 36.5537C196.402 36.5537 198.058 37.2281 199.466 38.5769C200.873 39.916 201.577 41.5727 201.577 43.5471C201.577 45.5215 200.907 47.188 199.568 48.5466C198.239 49.8954 196.568 50.5698 194.554 50.5698C192.541 50.5698 190.869 49.8856 189.54 48.5172C188.211 47.1489 187.546 45.5068 187.546 43.5911ZM191.197 47.359C192.155 48.9717 193.46 49.7781 195.111 49.7781C196.392 49.7781 197.369 49.265 198.044 48.2387C198.728 47.2124 199.07 45.9515 199.07 44.4561C199.07 42.9606 198.591 41.4261 197.633 39.8525C196.685 38.2788 195.405 37.492 193.792 37.492C192.609 37.492 191.676 38.0051 190.992 39.0314C190.317 40.0479 189.98 41.343 189.98 42.9167C189.98 44.4805 190.386 45.9613 191.197 47.359ZM210.828 40.1457C210.828 40.3607 210.745 40.4682 210.579 40.4682C210.423 40.4682 210.3 40.3509 210.212 40.1164C209.978 39.4713 209.626 38.8995 209.157 38.401C208.697 37.9025 208.126 37.6533 207.441 37.6533C206.542 37.6533 205.936 38.1029 205.623 39.0021C205.526 39.3051 205.477 39.6179 205.477 39.9404C205.477 40.263 205.682 40.6246 206.093 41.0254C206.503 41.4163 207.178 41.8855 208.116 42.4328C209.054 42.9802 209.738 43.4445 210.168 43.8256C211.146 44.6955 211.635 45.7023 211.635 46.8459C211.635 47.9894 211.214 48.8984 210.374 49.5728C209.533 50.2375 208.556 50.5698 207.441 50.5698C206.845 50.5698 206.303 50.4867 205.814 50.3206C205.335 50.1642 205.057 50.086 204.978 50.086C204.91 50.086 204.793 50.1642 204.626 50.3206C204.47 50.4867 204.343 50.5698 204.245 50.5698H203.996C203.937 50.5698 203.864 50.042 203.776 48.9864C203.688 47.9308 203.644 47.3052 203.644 47.1098C203.644 46.9143 203.659 46.8068 203.688 46.7872C203.727 46.7677 203.786 46.7579 203.864 46.7579C203.942 46.7579 204.006 46.7823 204.055 46.8312C204.113 46.8801 204.162 46.9436 204.201 47.0218C204.24 47.0902 204.27 47.1635 204.289 47.2417C204.319 47.3199 204.382 47.4665 204.48 47.6815C205.145 49.0988 206.171 49.8074 207.559 49.8074C208.174 49.8074 208.668 49.5826 209.039 49.133C209.411 48.6736 209.597 48.1654 209.597 47.6082C209.597 47.0511 209.45 46.582 209.157 46.2008C208.864 45.8196 208.497 45.4726 208.057 45.1598C207.627 44.847 207.158 44.544 206.65 44.2508C204.675 43.0975 203.688 41.8219 203.688 40.4242C203.688 39.3784 204.138 38.4792 205.037 37.7266C205.936 36.9642 206.86 36.583 207.808 36.583C208.756 36.583 209.455 36.6856 209.905 36.8909C210.364 37.0962 210.633 37.2721 210.711 37.4187C210.789 37.5555 210.828 38.0149 210.828 38.7969V40.1457Z" fill="#9C6A4B"/>
</svg>
